<svg width="40" height="40" fill="none" xmlns="http://www.w3.org/2000/svg"><defs><clipPath id="a"><path fill="#fff" fill-opacity="0" d="M0 0h40v40H0z"/></clipPath></defs><path d="M0 0h40v40H0z"/><g clip-path="url(#a)" fill="#FFB800"><path d="M38.41 8.82L20.25.05a.646.646 0 00-.51 0L1.58 8.82c-.2.1-.33.3-.33.53v21.29c0 .23.13.43.33.53l18.16 8.77a.583.583 0 00.51 0l18.16-8.77c.2-.1.33-.3.33-.53V9.35a.59.59 0 00-.33-.53zM20 1.23l16.81 8.12-4.88 2.35-.09-.06-16.7-8.06L20 1.23zm-6.19 3.01l16.79 8.1-3.44 1.67L10.38 5.9l3.43-1.66zm17.18 9.22v6.13l-3.21 1.55v-6.13l3.21-1.55zm6.58 16.81l-16.99 8.21v-20l4.05-1.95a.588.588 0 10-.51-1.06l-4.12 2-1.63-.79a.584.584 0 00-.78.27c-.14.3-.02.65.27.79l1.55.74v20L2.42 30.27V10.28l12.94 6.25c.08.04.17.06.25.06a.592.592 0 00.26-1.12L3.18 9.35 9 6.54l17.6 8.5c.01 0 .01 0 .01.01v7.03c0 .2.1.39.28.49a.561.561 0 00.56.03l4.39-2.11c.2-.1.33-.3.33-.53v-7.07l5.4-2.61v19.99z"/><path d="M7.25 28l-2.66-1.29a.588.588 0 00-.51 1.06l2.67 1.29c.08.04.16.05.25.05A.583.583 0 007.25 28zm2.46-1.6l-5.12-2.46a.576.576 0 00-.78.27c-.14.29-.02.64.27.78l5.12 2.47a.583.583 0 00.78-.27c.14-.29.02-.64-.27-.79z"/></g></svg>