<svg width="40" height="40" fill="none" xmlns="http://www.w3.org/2000/svg"><defs><clipPath id="a"><path fill="#fff" fill-opacity="0" d="M0 0h40v40H0z"/></clipPath></defs><path d="M0 0h40v40H0z"/><g clip-path="url(#a)" fill="#FFB800"><path d="M20 39.99c-.19 0-.38-.04-.55-.12-7.91-3.85-14.46-8.01-14.46-19.88V6.24c0-.52.33-.99.83-1.17l13.75-5c.27-.1.58-.1.85 0l13.75 5c.5.18.83.65.83 1.17v13.75c0 11.87-6.55 16.03-14.46 19.88-.17.08-.36.12-.54.12zM7.49 7.12v12.87c0 9.33 4.21 13.25 12.51 17.36 8.29-4.11 12.5-8.03 12.5-17.36V7.12L20 2.57 7.49 7.12z"/><path d="M19.11 24.99l-5.88-5.88 1.76-1.77 4.12 4.12 7.87-7.87 1.77 1.77-9.64 9.63z"/></g></svg>