<svg width="40" height="32.148" fill="none" xmlns="http://www.w3.org/2000/svg"><path d="M34.73 0H10.7C7.8 0 5.43 2.36 5.43 5.26v.71h-.17C2.36 5.97 0 8.33 0 11.24v15.64c0 2.9 2.36 5.26 5.26 5.26h24.03c2.91 0 5.27-2.36 5.27-5.26v-.71h.17c2.9 0 5.27-2.36 5.27-5.27V5.26C40 2.36 37.63 0 34.73 0zm-2.52 26.88c0 1.61-1.31 2.92-2.92 2.92H5.26c-1.61 0-2.92-1.31-2.92-2.92v-6.96h29.87v6.96zm0-9.31H2.34v-3.28h29.87v3.28zm0-5.62H2.34v-.71c0-1.61 1.31-2.92 2.92-2.92h24.03c1.61 0 2.92 1.31 2.92 2.92v.71zm5.44 8.95c0 1.61-1.31 2.92-2.92 2.92h-.17V11.24a5.27 5.27 0 00-5.27-5.27H7.78v-.71c0-1.61 1.31-2.92 2.92-2.92h24.03c1.61 0 2.92 1.31 2.92 2.92V20.9z" fill="#FFB800"/><path d="M5.67 23.51h10.31v2.34H5.67v-2.34zm18.91 0h4.3v2.34h-4.3v-2.34z" fill="#FFB800"/></svg>