<svg width="30.519" height="40" fill="none" xmlns="http://www.w3.org/2000/svg"><path d="M30.51 33.1c-.09-5.43-5.64-7.04-9.7-8.21-.48-.14-.93-.27-1.36-.4v-2.25c.83-.52 1.56-1.18 2.15-1.97h2.47c1.21 0 2.19-.98 2.19-2.19v-2.66c.15-.34.23-.71.23-1.11v-.82c0-.4-.08-.78-.23-1.12V11c0-6.07-4.94-11-11.01-11-6.06 0-11 4.93-11 11v1.36c-.15.35-.23.73-.23 1.13v.82c0 1.56 1.27 2.83 2.83 2.83h.64a7.932 7.932 0 003.57 5.1v2.25c-.43.13-.89.26-1.36.4C5.64 26.06.08 27.67 0 33.1v6.11c0 .44.34.79.78.79h2.31c.43 0 .78-.35.78-.79 0-.43-.35-.78-.78-.78H1.56v-5.31c.03-1.9.9-3.32 2.74-4.47 1.21-.77 2.69-1.31 4.16-1.76l1.88 3.67c.21.41.75.55 1.13.3l.85-.57.72 2.71-1.24 5.43h-1.69a.781.781 0 000 1.56h19.62c.43 0 .78-.34.78-.78V33.1zm-10.14-6.71c.06.01.11.03.16.04l-1.35 2.64-2.53-1.71 2.14-1.44c.5.16 1.03.31 1.58.47zm-5.12 1.92l1.57 1.05-.76 2.85h-1.62l-.75-2.85 1.56-1.05zm0-1.89l-2.63-1.78V23a7.954 7.954 0 005.27 0v1.64l-2.64 1.78zm6.37-15.27c-.01-.01-.02-.02-.03-.02-1.61-1.03-2.99-1.91-5.16-1.29-.02.01-.04.02-.06.02-.46.18-.88.34-1.28.49-2.47.95-3.82 1.47-6.2 1.41v-.63c0-3.51 2.85-6.36 6.36-6.36 3.51 0 6.37 2.85 6.37 6.36v.02zm3.08 6.93c0 .35-.28.63-.63.63h-1.56c.22-.5.39-1.02.51-1.57h.64c.37 0 .72-.07 1.04-.2v1.14zm.23-3.77c0 .7-.57 1.27-1.27 1.27h-.48v-3.36h.48c.7 0 1.27.57 1.27 1.27v.82zM6.85 15.58c-.7 0-1.27-.57-1.27-1.27v-.82c0-.7.57-1.27 1.27-1.27h.48v3.36h-.48zm.49-4.92h-.49c-.37 0-.72.07-1.04.19.08-5.14 4.29-9.29 9.44-9.29 5.16 0 9.37 4.15 9.45 9.29-.32-.12-.67-.19-1.04-.19h-.49c-.25-4.15-3.7-7.46-7.92-7.46-4.21 0-7.66 3.31-7.91 7.46zm1.6 5.62c-.03-.25-.05-.5-.05-.76v-2.2c2.67.06 4.27-.55 6.76-1.51.39-.15.8-.31 1.24-.47 1.48-.41 2.32.13 3.86 1.1.26.17.56.36.87.55v2.53c0 1.16-.32 2.25-.86 3.19h-5.51a.781.781 0 000 1.56h4.23a6.285 6.285 0 01-4.23 1.62 6.36 6.36 0 01-6.31-5.61zm2.39 12.79l-1.35-2.64c.05-.01.1-.03.15-.04.56-.16 1.09-.32 1.59-.47l2.14 1.44-2.53 1.71zm2.07 9.36l1.07-4.66h1.57l1.07 4.66H13.4zm15.55 0H18.71L17.47 33l.72-2.71.85.57c.38.25.92.11 1.13-.3l1.88-3.67c1.46.45 2.95.99 4.16 1.76 1.84 1.15 2.71 2.57 2.74 4.47v5.31z" fill="#FFB800"/><path d="M25.87 34.53h-3.94a.781.781 0 000 1.56h3.94a.781.781 0 000-1.56zM6.6 38.43c-.43 0-.78.35-.78.78 0 .44.35.79.78.79.43 0 .78-.35.78-.79 0-.43-.35-.78-.78-.78z" fill="#FFB800"/></svg>