<svg width="37.495" height="40" fill="none" xmlns="http://www.w3.org/2000/svg"><path d="M37.16 8.82L19 .05a.646.646 0 00-.51 0L.33 8.82c-.21.1-.33.3-.33.53v21.29c0 .23.12.43.33.53l18.16 8.77a.573.573 0 00.51 0l18.16-8.77c.2-.1.33-.3.33-.53V9.35a.59.59 0 00-.33-.53zM18.74 1.23l16.82 8.12-4.88 2.35c-.03-.02-.06-.04-.1-.06l-16.7-8.06 4.86-2.35zm-6.18 3.01l16.79 8.11-3.44 1.66L9.13 5.9l3.43-1.66zm17.18 9.22v6.13l-3.21 1.55v-6.13l3.21-1.55zm6.58 16.81l-16.99 8.21v-20l4.05-1.95c.29-.14.41-.49.27-.78a.58.58 0 00-.78-.28l-4.13 2-1.62-.79a.584.584 0 00-.78.27c-.15.3-.02.65.27.79l1.55.74v20L1.17 30.27V10.28l12.93 6.25c.09.04.17.06.26.06.22 0 .43-.13.53-.34a.58.58 0 00-.28-.78L1.93 9.35l5.82-2.81 17.6 8.5s.01 0 .01.01v7.03c0 .2.1.39.27.49a.583.583 0 00.57.03l4.38-2.11c.21-.1.33-.3.33-.53v-7.07l5.41-2.61v19.99z" fill="#FFB800"/></svg>