<svg aria-hidden="true" style="position:absolute;width:0;height:0" xmlns="http://www.w3.org/2000/svg" overflow="hidden"><defs><symbol id="icon-box-1" viewBox="0 0 32 32"><path fill="var(--color1, #ffb800)" d="M30.728 7.056L16.2.04a.516.516 0 00-.408 0L1.264 7.056A.472.472 0 001 7.48v17.032c0 .184.104.344.264.424l14.528 7.016a.467.467 0 00.408 0l14.528-7.016c.16-.08.264-.24.264-.424V7.48a.472.472 0 00-.264-.424zM16 .984L29.448 7.48l-3.904 1.88-.072-.048-13.36-6.448L16 .984zm-4.952 2.408l13.432 6.48-2.752 1.336L8.304 4.72l2.744-1.328zm13.744 7.376v4.904l-2.568 1.24v-4.904l2.568-1.24zm5.264 13.448l-13.592 6.568v-16l3.24-1.56a.47.47 0 10-.408-.848L16 13.976l-1.304-.632a.467.467 0 00-.624.216.474.474 0 00.216.632l1.24.592v16L1.936 24.216V8.224l10.352 5a.459.459 0 00.2.048.474.474 0 00.208-.896L2.544 7.48 7.2 5.232l14.08 6.8c.008 0 .008 0 .008.008v5.624c0 .16.08.312.224.392a.45.45 0 00.448.024l3.512-1.688c.16-.08.264-.24.264-.424v-5.656l4.32-2.088v15.992z"/><path fill="var(--color1, #ffb800)" d="M5.8 22.4l-2.128-1.032a.47.47 0 00-.408.848L5.4 23.248c.064.032.128.04.2.04a.466.466 0 00.2-.888zm1.968-1.28l-4.096-1.968c-.232-.12-.512-.016-.624.216s-.016.512.216.624l4.096 1.976a.466.466 0 00.624-.216.479.479 0 00-.216-.632z"/></symbol><symbol id="icon-checked-1" viewBox="0 0 32 32"><path fill="var(--color1, #ffb800)" d="M16 31.992c-.152 0-.304-.032-.44-.096-6.328-3.08-11.568-6.408-11.568-15.904v-11c0-.416.264-.792.664-.936l11-4a.993.993 0 01.68 0l11 4c.4.144.664.52.664.936v11c0 9.496-5.24 12.824-11.568 15.904a1.029 1.029 0 01-.432.096zM5.992 5.696v10.296c0 7.464 3.368 10.6 10.008 13.888 6.632-3.288 10-6.424 10-13.888V5.696l-10-3.64-10.008 3.64z"/><path fill="var(--color1, #ffb800)" d="M15.288 19.992l-4.704-4.704 1.408-1.416 3.296 3.296 6.296-6.296L23 12.288l-7.712 7.704z"/></symbol><symbol id="icon-Group-1" viewBox="0 0 24 32"><path fill="var(--color1, #ffb800)" d="M24.408 26.48c-.072-4.344-4.512-5.632-7.76-6.568-.384-.112-.744-.216-1.088-.32v-1.8a6.332 6.332 0 001.72-1.576h1.976c.968 0 1.752-.784 1.752-1.752v-2.128c.12-.272.184-.568.184-.888v-.656c0-.32-.064-.624-.184-.896V8.8c0-4.856-3.952-8.8-8.808-8.8-4.848 0-8.8 3.944-8.8 8.8v1.088c-.12.28-.184.584-.184.904v.656a2.267 2.267 0 002.264 2.264h.512a6.345 6.345 0 002.856 4.08v1.8c-.344.104-.712.208-1.088.32C4.512 20.848.064 22.136 0 26.48v4.888c0 .352.272.632.624.632h1.848c.344 0 .624-.28.624-.632a.625.625 0 00-.624-.624H1.248v-4.248c.024-1.52.72-2.656 2.192-3.576.968-.616 2.152-1.048 3.328-1.408l1.504 2.936c.168.328.6.44.904.24l.68-.456.576 2.168-.992 4.344H8.088a.625.625 0 000 1.248h15.696a.62.62 0 00.624-.624V26.48zm-8.112-5.368c.048.008.088.024.128.032l-1.08 2.112-2.024-1.368 1.712-1.152c.4.128.824.248 1.264.376zM12.2 22.648l1.256.84-.608 2.28h-1.296l-.6-2.28 1.248-.84zm0-1.512l-2.104-1.424V18.4a6.363 6.363 0 004.216 0v1.312L12.2 21.136zM17.296 8.92c-.008-.008-.016-.016-.024-.016-1.288-.824-2.392-1.528-4.128-1.032a.114.114 0 01-.048.016c-.368.144-.704.272-1.024.392-1.976.76-3.056 1.176-4.96 1.128v-.504c0-2.808 2.28-5.088 5.088-5.088s5.096 2.28 5.096 5.088v.016zm2.464 5.544c0 .28-.224.504-.504.504h-1.248c.176-.4.312-.816.408-1.256h.512c.296 0 .576-.056.832-.16v.912zm.184-3.016c0 .56-.456 1.016-1.016 1.016h-.384V9.776h.384c.56 0 1.016.456 1.016 1.016v.656zM5.48 12.464c-.56 0-1.016-.456-1.016-1.016v-.656c0-.56.456-1.016 1.016-1.016h.384v2.688H5.48zm.392-3.936H5.48c-.296 0-.576.056-.832.152.064-4.112 3.432-7.432 7.552-7.432 4.128 0 7.496 3.32 7.56 7.432a2.364 2.364 0 00-.832-.152h-.392c-.2-3.32-2.96-5.968-6.336-5.968-3.368 0-6.128 2.648-6.328 5.968zm1.28 4.496c-.024-.2-.04-.4-.04-.608v-1.76c2.136.048 3.416-.44 5.408-1.208.312-.12.64-.248.992-.376 1.184-.328 1.856.104 3.088.88.208.136.448.288.696.44v2.024c0 .928-.256 1.8-.688 2.552H12.2a.625.625 0 000 1.248h3.384a5.028 5.028 0 01-3.384 1.296c-2.6 0-4.752-1.96-5.048-4.488zm1.912 10.232l-1.08-2.112c.04-.008.08-.024.12-.032.448-.128.872-.256 1.272-.376l1.712 1.152-2.024 1.368zm1.656 7.488l.856-3.728h1.256l.856 3.728H10.72zm12.44 0h-8.192l-.992-4.344.576-2.168.68.456c.304.2.736.088.904-.24l1.504-2.936c1.168.36 2.36.792 3.328 1.408 1.472.92 2.168 2.056 2.192 3.576v4.248z"/><path fill="var(--color1, #ffb800)" d="M20.696 27.624h-3.152a.625.625 0 000 1.248h3.152a.625.625 0 000-1.248zM5.28 30.744a.625.625 0 00-.624.624c0 .352.28.632.624.632s.624-.28.624-.632a.625.625 0 00-.624-.624z"/></symbol><symbol id="icon-Group" viewBox="0 0 40 32"><path fill="var(--color1, #ffb800)" d="M34.57 0H10.651C7.764 0 5.405 2.349 5.405 5.236v.707h-.169A5.244 5.244 0 000 11.189v15.568a5.242 5.242 0 005.236 5.236h23.919a5.244 5.244 0 005.246-5.236v-.707h.169a5.253 5.253 0 005.246-5.246V5.236C39.816 2.349 37.457 0 34.57 0zm-2.509 26.756a2.91 2.91 0 01-2.907 2.907H5.235a2.91 2.91 0 01-2.907-2.907v-6.928H32.06v6.928zm0-9.267H2.329v-3.265h29.732v3.265zm0-5.594H2.329v-.707a2.91 2.91 0 012.907-2.907h23.919a2.91 2.91 0 012.907 2.907v.707zm5.415 8.909a2.91 2.91 0 01-2.907 2.907H34.4V11.189a5.246 5.246 0 00-5.246-5.246H7.743v-.707a2.91 2.91 0 012.907-2.907h23.919a2.91 2.91 0 012.907 2.907v15.568z"/><path fill="var(--color1, #ffb800)" d="M5.644 23.401h10.262v2.329H5.644v-2.329zm18.823 0h4.28v2.329h-4.28v-2.329z"/></symbol><symbol id="icon-Vector" viewBox="0 0 24 32"><path d="M.513 9.186a1.753 1.753 0 010-2.478L6.708.513a1.753 1.753 0 012.478 0l14.248 14.248a1.753 1.753 0 010 2.478L9.186 31.487a1.753 1.753 0 01-2.478 0L.513 25.292a1.753 1.753 0 010-2.478l5.575-5.575a1.753 1.753 0 000-2.478L.513 9.186z"/></symbol></defs></svg>